<mxfile host="Electron" modified="2024-04-13T09:06:06.653Z" agent="Mozilla/5.0 (Windows NT 10.0; Win64; x64) AppleWebKit/537.36 (KHTML, like Gecko) draw.io/24.1.0 Chrome/120.0.6099.109 Electron/28.1.0 Safari/537.36" etag="wGTRUi6-FePWOdS4JpdL" version="24.1.0" type="device">
  <diagram name="Page-1" id="lKGTIl3aiqgoEoCt3j6W">
    <mxGraphModel dx="1050" dy="621" grid="1" gridSize="10" guides="1" tooltips="1" connect="1" arrows="1" fold="1" page="1" pageScale="1" pageWidth="850" pageHeight="1100" math="0" shadow="0">
      <root>
        <mxCell id="0" />
        <mxCell id="1" parent="0" />
        <mxCell id="anLK1z0D5qobKCmWEZ-B-3" value="" style="edgeStyle=orthogonalEdgeStyle;rounded=0;orthogonalLoop=1;jettySize=auto;html=1;" edge="1" parent="1" source="anLK1z0D5qobKCmWEZ-B-1" target="anLK1z0D5qobKCmWEZ-B-2">
          <mxGeometry relative="1" as="geometry" />
        </mxCell>
        <mxCell id="anLK1z0D5qobKCmWEZ-B-1" value="START" style="rounded=1;whiteSpace=wrap;html=1;" vertex="1" parent="1">
          <mxGeometry x="365" y="20" width="120" height="60" as="geometry" />
        </mxCell>
        <mxCell id="anLK1z0D5qobKCmWEZ-B-5" value="" style="edgeStyle=orthogonalEdgeStyle;rounded=0;orthogonalLoop=1;jettySize=auto;html=1;" edge="1" parent="1" source="anLK1z0D5qobKCmWEZ-B-2">
          <mxGeometry relative="1" as="geometry">
            <mxPoint x="425" y="280" as="targetPoint" />
          </mxGeometry>
        </mxCell>
        <mxCell id="anLK1z0D5qobKCmWEZ-B-2" value="number, i = 2" style="shape=parallelogram;perimeter=parallelogramPerimeter;whiteSpace=wrap;html=1;fixedSize=1;" vertex="1" parent="1">
          <mxGeometry x="365" y="140" width="120" height="60" as="geometry" />
        </mxCell>
        <mxCell id="anLK1z0D5qobKCmWEZ-B-8" value="" style="edgeStyle=orthogonalEdgeStyle;rounded=0;orthogonalLoop=1;jettySize=auto;html=1;entryX=0.5;entryY=0;entryDx=0;entryDy=0;" edge="1" parent="1" source="anLK1z0D5qobKCmWEZ-B-6" target="anLK1z0D5qobKCmWEZ-B-9">
          <mxGeometry relative="1" as="geometry">
            <mxPoint x="425" y="430" as="targetPoint" />
          </mxGeometry>
        </mxCell>
        <mxCell id="anLK1z0D5qobKCmWEZ-B-18" value="TRUE" style="edgeLabel;html=1;align=center;verticalAlign=middle;resizable=0;points=[];" vertex="1" connectable="0" parent="anLK1z0D5qobKCmWEZ-B-8">
          <mxGeometry x="-0.0298" relative="1" as="geometry">
            <mxPoint as="offset" />
          </mxGeometry>
        </mxCell>
        <mxCell id="anLK1z0D5qobKCmWEZ-B-6" value="i &amp;lt; number" style="shape=hexagon;perimeter=hexagonPerimeter2;whiteSpace=wrap;html=1;fixedSize=1;" vertex="1" parent="1">
          <mxGeometry x="365" y="280" width="120" height="80" as="geometry" />
        </mxCell>
        <mxCell id="anLK1z0D5qobKCmWEZ-B-11" value="" style="edgeStyle=orthogonalEdgeStyle;rounded=0;orthogonalLoop=1;jettySize=auto;html=1;" edge="1" parent="1" source="anLK1z0D5qobKCmWEZ-B-9" target="anLK1z0D5qobKCmWEZ-B-10">
          <mxGeometry relative="1" as="geometry" />
        </mxCell>
        <mxCell id="anLK1z0D5qobKCmWEZ-B-22" value="FALSE" style="edgeLabel;html=1;align=center;verticalAlign=middle;resizable=0;points=[];" vertex="1" connectable="0" parent="anLK1z0D5qobKCmWEZ-B-11">
          <mxGeometry x="-0.2248" y="1" relative="1" as="geometry">
            <mxPoint as="offset" />
          </mxGeometry>
        </mxCell>
        <mxCell id="anLK1z0D5qobKCmWEZ-B-13" style="edgeStyle=orthogonalEdgeStyle;rounded=0;orthogonalLoop=1;jettySize=auto;html=1;exitX=0;exitY=0.5;exitDx=0;exitDy=0;entryX=1;entryY=0.25;entryDx=0;entryDy=0;" edge="1" parent="1" source="anLK1z0D5qobKCmWEZ-B-9" target="anLK1z0D5qobKCmWEZ-B-12">
          <mxGeometry relative="1" as="geometry" />
        </mxCell>
        <mxCell id="anLK1z0D5qobKCmWEZ-B-21" value="TRUE" style="edgeLabel;html=1;align=center;verticalAlign=middle;resizable=0;points=[];" vertex="1" connectable="0" parent="anLK1z0D5qobKCmWEZ-B-13">
          <mxGeometry x="-0.1504" y="-1" relative="1" as="geometry">
            <mxPoint as="offset" />
          </mxGeometry>
        </mxCell>
        <mxCell id="anLK1z0D5qobKCmWEZ-B-9" value="number % i == 0&amp;nbsp;" style="rhombus;whiteSpace=wrap;html=1;" vertex="1" parent="1">
          <mxGeometry x="353" y="430" width="145" height="80" as="geometry" />
        </mxCell>
        <mxCell id="anLK1z0D5qobKCmWEZ-B-17" style="edgeStyle=orthogonalEdgeStyle;rounded=0;orthogonalLoop=1;jettySize=auto;html=1;exitX=1;exitY=0.5;exitDx=0;exitDy=0;entryX=1;entryY=0.5;entryDx=0;entryDy=0;" edge="1" parent="1" source="anLK1z0D5qobKCmWEZ-B-10" target="anLK1z0D5qobKCmWEZ-B-6">
          <mxGeometry relative="1" as="geometry">
            <Array as="points">
              <mxPoint x="560" y="620" />
              <mxPoint x="560" y="320" />
            </Array>
          </mxGeometry>
        </mxCell>
        <mxCell id="anLK1z0D5qobKCmWEZ-B-10" value="i++" style="rounded=0;whiteSpace=wrap;html=1;" vertex="1" parent="1">
          <mxGeometry x="365" y="590" width="120" height="60" as="geometry" />
        </mxCell>
        <mxCell id="anLK1z0D5qobKCmWEZ-B-16" value="" style="edgeStyle=orthogonalEdgeStyle;rounded=0;orthogonalLoop=1;jettySize=auto;html=1;" edge="1" parent="1" source="anLK1z0D5qobKCmWEZ-B-12" target="anLK1z0D5qobKCmWEZ-B-14">
          <mxGeometry relative="1" as="geometry" />
        </mxCell>
        <mxCell id="anLK1z0D5qobKCmWEZ-B-12" value="Eded murekkebdir" style="shape=document;whiteSpace=wrap;html=1;boundedLbl=1;" vertex="1" parent="1">
          <mxGeometry x="120" y="450" width="120" height="80" as="geometry" />
        </mxCell>
        <mxCell id="anLK1z0D5qobKCmWEZ-B-14" value="END" style="rounded=1;whiteSpace=wrap;html=1;" vertex="1" parent="1">
          <mxGeometry x="120" y="570" width="120" height="60" as="geometry" />
        </mxCell>
        <mxCell id="anLK1z0D5qobKCmWEZ-B-25" style="edgeStyle=orthogonalEdgeStyle;rounded=0;orthogonalLoop=1;jettySize=auto;html=1;exitX=0;exitY=0.5;exitDx=0;exitDy=0;entryX=0;entryY=0.5;entryDx=0;entryDy=0;" edge="1" parent="1" source="anLK1z0D5qobKCmWEZ-B-23" target="anLK1z0D5qobKCmWEZ-B-14">
          <mxGeometry relative="1" as="geometry" />
        </mxCell>
        <mxCell id="anLK1z0D5qobKCmWEZ-B-23" value="Eded sadedir" style="shape=document;whiteSpace=wrap;html=1;boundedLbl=1;" vertex="1" parent="1">
          <mxGeometry x="110" y="290" width="120" height="80" as="geometry" />
        </mxCell>
        <mxCell id="anLK1z0D5qobKCmWEZ-B-24" style="edgeStyle=orthogonalEdgeStyle;rounded=0;orthogonalLoop=1;jettySize=auto;html=1;exitX=0;exitY=0.5;exitDx=0;exitDy=0;entryX=1.013;entryY=0.385;entryDx=0;entryDy=0;entryPerimeter=0;" edge="1" parent="1" source="anLK1z0D5qobKCmWEZ-B-6" target="anLK1z0D5qobKCmWEZ-B-23">
          <mxGeometry relative="1" as="geometry" />
        </mxCell>
        <mxCell id="anLK1z0D5qobKCmWEZ-B-26" value="FALSE" style="edgeLabel;html=1;align=center;verticalAlign=middle;resizable=0;points=[];" vertex="1" connectable="0" parent="anLK1z0D5qobKCmWEZ-B-24">
          <mxGeometry x="-0.1806" y="-2" relative="1" as="geometry">
            <mxPoint as="offset" />
          </mxGeometry>
        </mxCell>
      </root>
    </mxGraphModel>
  </diagram>
</mxfile>
